<svg width="44" height="29" viewBox="0 0 44 29" fill="none" xmlns="http://www.w3.org/2000/svg">
<path d="M8.71651 0.0572548H2.31261C1.03516 0.0572548 0 1.09241 0 2.3695C0 3.64658 1.03516 4.68174 2.31261 4.68174H4.11012H5.96112H8.71651H14.1975V0.0572548H8.71651ZM14.1975 6.81385H4.79363C3.51617 6.81385 2.48101 7.84901 2.48101 9.12609C2.48101 10.4032 3.51617 11.4383 4.79363 11.4383H9.59114H11.4421H14.1975V6.81385ZM35.0427 4.50237C34.2834 3.12241 33.2901 2.02658 32.062 1.21451C30.8309 0.40583 29.5105 -1.52588e-05 28.1075 -1.52588e-05H22.8454H18.8586C18.1554 -1.52588e-05 17.5679 0.234367 17.0923 0.709553C16.6206 1.18172 16.3828 1.7692 16.3828 2.47237V4.66402H16.385V11.441H20.9447V4.66402H21.0468H21.4138H22.8454H26.2806H28.1075C28.6192 4.66402 29.1208 4.87204 29.6062 5.29108C30.0945 5.71049 30.5008 6.2584 30.8241 6.93519C31.1474 7.6116 31.3094 8.34115 31.3094 9.12346C31.3094 9.88277 31.1474 10.6055 30.8241 11.2955C30.5008 11.9855 30.0945 12.5466 29.6062 12.9788C29.1208 13.4114 28.6192 13.6258 28.1075 13.6258H26.2806H22.8454H21.0468H18.2338H16.3828H8.58488C7.3078 13.6258 6.27265 14.661 6.27265 15.9381C6.27265 17.2152 7.3078 18.2503 8.58488 18.2503H16.3828H18.2338H21.0468H25.8356H26.2806H28.1075C29.5105 18.2503 30.8309 17.8377 32.062 17.0128C33.2901 16.1906 34.2834 15.0883 35.0427 13.7084C35.7986 12.3288 36.1781 10.8004 36.1781 9.12346C36.1781 7.42018 35.7986 5.87894 35.0427 4.50237ZM21.0491 20.4258V25.9185C21.0491 26.6213 20.8347 27.2091 20.4021 27.6809C19.9698 28.1565 19.4019 28.3909 18.6988 28.3909C18.0224 28.3909 17.4677 28.1565 17.0354 27.6809C16.6028 27.2091 16.385 26.6213 16.385 25.9185V20.4258H21.0491Z" fill="url(#paint0_linear_377_191)"/>
<defs>
<linearGradient id="paint0_linear_377_191" x1="-7" y1="14.1952" x2="36.1781" y2="14.1952" gradientUnits="userSpaceOnUse">
<stop stop-color="#338EFF"/>
<stop offset="0.705" stop-color="#FFC531"/>
</linearGradient>
</defs>
</svg>
