<svg width="173" height="34" viewBox="0 0 173 34" fill="none" xmlns="http://www.w3.org/2000/svg">
<path d="M49.0424 19.4717C49.0424 18.4554 48.8378 17.5709 48.4282 16.8225C48.019 16.0742 47.4707 15.4893 46.7807 15.0703C46.0934 14.6509 45.3284 14.4413 44.4899 14.4413C43.6515 14.4413 42.8884 14.6509 42.1988 15.0703C41.5092 15.4893 40.9605 16.0742 40.5513 16.8225C40.1417 17.5709 39.9371 18.4554 39.9371 19.4717C39.9371 20.471 40.1417 21.3438 40.5513 22.0944C40.9605 22.8424 41.5092 23.425 42.1988 23.844C42.8884 24.2635 43.6515 24.473 44.4899 24.473C45.3284 24.473 46.0934 24.2635 46.7807 23.844C47.4707 23.425 48.019 22.8424 48.4282 22.0944C48.8378 21.3438 49.0424 20.471 49.0424 19.4717ZM52.6351 19.4717C52.6351 21.1098 52.2719 22.5526 51.5431 23.8003C50.8143 25.048 49.8372 26.0206 48.6087 26.72C47.3802 27.4198 46.0082 27.768 44.4899 27.768C42.9713 27.768 41.5993 27.4198 40.3734 26.72C39.145 26.0206 38.1652 25.048 37.4364 23.8003C36.7076 22.5526 36.3447 21.1098 36.3447 19.4717C36.3447 17.8366 36.7076 16.3937 37.4364 15.1456C38.1652 13.8979 39.145 12.9182 40.3734 12.2112C41.5993 11.502 42.9713 11.1463 44.4899 11.1463C46.0082 11.1463 47.3802 11.502 48.6087 12.2112C49.8372 12.9182 50.8143 13.8979 51.5431 15.1456C52.2719 16.3937 52.6351 17.8366 52.6351 19.4717Z" fill="white"/>
<path d="M54.8527 24.9825C54.653 24.7044 54.5629 24.3437 54.5821 23.9051C54.6017 23.4665 54.8625 23.0862 55.3599 22.7671C55.6791 22.567 56.0201 22.4818 56.3785 22.5135C56.7391 22.5428 57.0877 22.7279 57.4264 23.0666C58.0068 23.647 58.6157 24.0954 59.2545 24.4146C59.8932 24.7337 60.6924 24.8924 61.6503 24.8924C61.9499 24.8728 62.2789 24.8287 62.6373 24.7582C62.9979 24.69 63.3126 24.5291 63.5805 24.2804C63.8511 24.0294 63.9852 23.647 63.9852 23.125C63.9852 22.6864 63.8364 22.3378 63.5368 22.0771C63.2368 21.8189 62.8419 21.5996 62.3547 21.4191C61.8648 21.2386 61.3214 21.0706 60.7218 20.9097C60.1027 20.7295 59.4689 20.5321 58.8207 20.3101C58.1699 20.0908 57.5776 19.8082 57.0391 19.4573C56.4979 19.1088 56.0593 18.6456 55.7205 18.0653C55.3818 17.4854 55.2111 16.7566 55.2111 15.8793C55.2111 14.88 55.4914 14.0317 56.0495 13.3323C56.6076 12.6352 57.3315 12.0944 58.2212 11.7165C59.1082 11.3362 60.0417 11.1463 61.0214 11.1463C61.6406 11.1463 62.2887 11.2217 62.9689 11.3705C63.6464 11.5216 64.2946 11.7606 64.9137 12.0895C65.5328 12.4208 66.0517 12.8549 66.4712 13.3934C66.6905 13.693 66.822 14.0513 66.8612 14.4707C66.9 14.8898 66.7123 15.27 66.2933 15.6088C65.9933 15.8499 65.6425 15.9547 65.2427 15.923C64.8455 15.894 64.5139 15.7599 64.2558 15.5187C63.917 15.0801 63.461 14.7315 62.8931 14.4707C62.323 14.2122 61.6696 14.083 60.9314 14.083C60.6314 14.083 60.3073 14.1173 59.9588 14.1877C59.6079 14.2559 59.3031 14.407 59.0449 14.6362C58.7842 14.8653 58.6549 15.2312 58.6549 15.7282C58.6549 16.1887 58.806 16.552 59.1033 16.8225C59.4033 17.0905 59.8076 17.3124 60.3171 17.4805C60.8266 17.6512 61.37 17.8144 61.9499 17.9753C62.5495 18.1362 63.1565 18.3238 63.7757 18.5431C64.3944 18.7651 64.965 19.0526 65.4839 19.4133C66.0031 19.7716 66.4222 20.237 66.7417 20.8049C67.0609 21.3754 67.2192 22.0993 67.2192 22.9766C67.2192 23.9952 66.9218 24.863 66.3223 25.582C65.7228 26.301 64.9748 26.8444 64.0753 27.2148C63.1784 27.583 62.2597 27.768 61.3214 27.768C60.1415 27.768 58.9643 27.5634 57.7871 27.1541C56.6076 26.7445 55.6301 26.0206 54.8527 24.9825Z" fill="white"/>
<path d="M77.9408 24.0856C77.6823 24.0856 77.451 24.1293 77.2535 24.2194C77.0538 24.3098 76.8341 24.3535 76.5929 24.3535C76.3736 24.3535 76.169 24.3147 75.9787 24.234C75.7887 24.156 75.6399 24.0245 75.5302 23.844C75.4206 23.6662 75.3671 23.437 75.3671 23.1567V15.0409H77.4924C77.9725 15.0409 78.3697 14.8849 78.6889 14.5755C79.0084 14.2657 79.1693 13.8832 79.1693 13.4224C79.1693 12.9449 79.0084 12.5451 78.6889 12.2259C78.3697 11.9068 77.9725 11.7458 77.4924 11.7458H75.3671V9.83003C75.3671 9.31076 75.2013 8.87702 74.8723 8.52619C74.5433 8.17762 74.1168 8.00202 73.6001 8.00202C73.0786 8.00202 72.6445 8.17762 72.2963 8.52619C71.9477 8.87702 71.7721 9.31076 71.7721 9.83003V11.7458H70.3952C69.9151 11.7458 69.5153 11.9019 69.1961 12.2112C68.8765 12.5206 68.7183 12.9035 68.7183 13.364C68.7183 13.8418 68.8765 14.2416 69.1961 14.5608C69.5153 14.88 69.9151 15.0409 70.3952 15.0409H71.7721V23.3055C71.7721 24.2853 71.921 25.0529 72.2205 25.611C72.5205 26.1717 72.8958 26.5862 73.3442 26.8542C73.7927 27.1247 74.2728 27.2954 74.7822 27.3636C75.2913 27.4341 75.7545 27.4684 76.1739 27.4684C76.8733 27.4684 77.5263 27.2905 78.1357 26.9295C78.745 26.5715 79.0498 26.1107 79.0498 25.5526C79.0498 25.0921 78.9353 24.7337 78.7062 24.473C78.4744 24.2145 78.2212 24.0856 77.9408 24.0856Z" fill="white"/>
<path d="M86.2395 15.4893C86.6174 15.1117 87.0681 14.8412 87.5874 14.6802C88.1067 14.5216 88.6647 14.4413 89.2643 14.4413C89.8834 14.4413 90.4656 14.5755 91.0166 14.8461C91.5648 15.114 92.0231 15.4795 92.3935 15.9377C92.7617 16.3986 92.9663 16.9175 93.0077 17.4952V17.7047H85.1647C85.213 17.4598 85.2687 17.2261 85.3403 17.0174C85.5597 16.379 85.8592 15.8695 86.2395 15.4893ZM96.2711 20.2517C96.6321 19.9517 96.8198 19.5621 96.8416 19.0843C96.8416 18.0047 96.637 16.9857 96.2274 16.0278C95.8178 15.0703 95.2623 14.2269 94.5652 13.4981C93.8658 12.7693 93.0613 12.1943 92.1546 11.7749C91.2457 11.3558 90.2829 11.1463 89.2643 11.1463C87.9458 11.1463 86.6977 11.4874 85.5205 12.1649C84.341 12.8451 83.388 13.8173 82.6592 15.0846C81.9304 16.3522 81.5675 17.8852 81.5675 19.6816C81.5675 21.2194 81.9014 22.5986 82.5691 23.815C83.2395 25.0337 84.197 25.9961 85.4451 26.7053C86.6928 27.4149 88.1651 27.768 89.8638 27.768C90.8606 27.768 91.8282 27.6048 92.7666 27.2732C93.7049 26.9442 94.4337 26.5618 94.9552 26.1205C95.5133 25.6819 95.7936 25.192 95.7936 24.6535C95.7936 24.2537 95.6474 23.9051 95.3573 23.6055C95.0698 23.3056 94.7042 23.1567 94.2652 23.1567C93.946 23.1567 93.6073 23.2471 93.2467 23.425C93.0273 23.5467 92.7835 23.6907 92.513 23.8614C92.2424 24.0294 91.8889 24.1757 91.4503 24.2951C91.0117 24.4146 90.4219 24.473 89.6833 24.473C88.8841 24.473 88.1308 24.2804 87.4216 23.8904C86.7124 23.5004 86.1347 22.9325 85.684 22.1818C85.4229 21.7462 85.2469 21.2477 85.138 20.7001H95.0136C95.4937 20.7001 95.9131 20.5517 96.2711 20.2517Z" fill="white"/>
<path d="M111.784 24.6241L107.473 19.2667L111.606 14.2318C111.765 14.0513 111.875 13.8614 111.935 13.6613C111.994 13.4638 112.026 13.2641 112.026 13.0644C112.026 12.645 111.86 12.2696 111.531 11.9407C111.202 11.6117 110.797 11.4459 110.317 11.4459C109.759 11.4459 109.279 11.7165 108.881 12.255L105.469 16.7762L101.782 12.1943C101.382 11.6969 100.895 11.4459 100.315 11.4459C99.8371 11.4459 99.4105 11.6166 99.0423 11.9554C98.6719 12.2941 98.4891 12.7256 98.4891 13.2423C98.4891 13.6421 98.6184 14.0027 98.8765 14.3219L103.192 19.6823L99.0276 24.7729C98.728 25.1336 98.5769 25.5111 98.5769 25.911C98.5769 26.3522 98.7717 26.7249 99.1618 27.0347C99.5518 27.3441 99.9441 27.5001 100.344 27.5001C100.924 27.5001 101.404 27.2491 101.782 26.7494L105.3 22.3009L108.881 26.7494C109.279 27.2683 109.768 27.5294 110.349 27.5294C110.807 27.5294 111.226 27.349 111.606 26.9906C111.984 26.63 112.174 26.2011 112.174 25.7014C112.174 25.3016 112.045 24.9433 111.784 24.6241Z" fill="white"/>
<path d="M126.234 22.004C125.864 22.7719 125.357 23.3764 124.706 23.815C124.058 24.2536 123.295 24.473 122.415 24.473C121.538 24.473 120.77 24.2536 120.11 23.815C119.452 23.3764 118.937 22.7719 118.567 22.004C118.199 21.2341 118.014 20.3809 118.014 19.4426C118.014 18.4847 118.199 17.6316 118.567 16.8809C118.937 16.1329 119.452 15.5405 120.11 15.0993C120.77 14.6606 121.538 14.4413 122.415 14.4413C123.295 14.4413 124.058 14.6606 124.706 15.0993C125.357 15.5405 125.864 16.1329 126.234 16.8809C126.605 17.6316 126.788 18.4847 126.788 19.4426C126.788 20.3809 126.605 21.2341 126.234 22.004ZM129.259 15.1309C128.611 13.893 127.733 12.9182 126.624 12.2112C125.515 11.502 124.263 11.1463 122.866 11.1463C122.167 11.1463 121.504 11.2658 120.875 11.5069C120.246 11.7458 119.691 12.0503 119.213 12.4207C118.78 12.7524 118.433 13.0859 118.165 13.4178V13.2739C118.165 12.7546 117.994 12.3209 117.655 11.9701C117.314 11.6215 116.885 11.4459 116.366 11.4459C115.847 11.4459 115.418 11.6215 115.079 11.9701C114.738 12.3209 114.57 12.7546 114.57 13.2739V31.6313C114.57 32.1698 114.738 32.611 115.079 32.9498C115.418 33.2886 115.847 33.4589 116.366 33.4589C116.885 33.4589 117.314 33.2837 117.655 32.9351C117.994 32.5843 118.165 32.1502 118.165 31.6313V25.758C118.376 25.9701 118.62 26.1815 118.899 26.391C119.427 26.7909 120.039 27.1198 120.739 27.3783C121.438 27.6391 122.186 27.768 122.986 27.768C124.343 27.768 125.567 27.4149 126.654 26.7053C127.743 25.9961 128.611 25.019 129.259 23.7709C129.907 22.5232 130.234 21.0803 130.234 19.4426C130.234 17.8045 129.907 16.3692 129.259 15.1309Z" fill="white"/>
<path d="M137.302 15.4893C137.68 15.1117 138.131 14.8412 138.65 14.6802C139.169 14.5216 139.727 14.4413 140.327 14.4413C140.946 14.4413 141.528 14.5755 142.079 14.8461C142.627 15.114 143.086 15.4795 143.456 15.9377C143.824 16.3986 144.029 16.9175 144.07 17.4952V17.7047H136.227C136.275 17.4598 136.331 17.2261 136.403 17.0174C136.622 16.379 136.922 15.8695 137.302 15.4893ZM147.334 20.2517C147.694 19.9517 147.882 19.5621 147.904 19.0843C147.904 18.0047 147.699 16.9857 147.29 16.0278C146.88 15.0703 146.325 14.2269 145.628 13.4981C144.928 12.7693 144.124 12.1943 143.217 11.7749C142.308 11.3558 141.345 11.1463 140.327 11.1463C139.008 11.1463 137.76 11.4874 136.583 12.1649C135.403 12.8451 134.45 13.8173 133.722 15.0846C132.993 16.3522 132.63 17.8852 132.63 19.6816C132.63 21.2194 132.964 22.5986 133.632 23.815C134.302 25.0337 135.26 25.9961 136.508 26.7053C137.755 27.4149 139.228 27.768 140.926 27.768C141.923 27.768 142.891 27.6048 143.829 27.2732C144.767 26.9442 145.496 26.5618 146.018 26.1205C146.576 25.6819 146.856 25.192 146.856 24.6535C146.856 24.2537 146.71 23.9051 146.42 23.6055C146.132 23.3056 145.766 23.1567 145.328 23.1567C145.009 23.1567 144.67 23.2471 144.309 23.425C144.09 23.5467 143.846 23.6907 143.575 23.8614C143.305 24.0294 142.951 24.1757 142.513 24.2951C142.074 24.4146 141.484 24.473 140.746 24.473C139.947 24.473 139.193 24.2804 138.484 23.8904C137.775 23.5004 137.197 22.9325 136.746 22.1818C136.485 21.7462 136.309 21.2477 136.2 20.7001H146.076C146.556 20.7001 146.975 20.5517 147.334 20.2517Z" fill="white"/>
<path d="M160.887 11.6554C160.477 11.3166 159.973 11.1463 159.374 11.1463C158.874 11.1463 158.374 11.207 157.877 11.3264C157.378 11.4459 156.907 11.6313 156.468 11.8796C156.03 12.131 155.635 12.4404 155.286 12.8085C155.037 13.0708 154.825 13.3617 154.643 13.679V13.2739C154.643 12.7546 154.472 12.3209 154.133 11.9701C153.792 11.6215 153.363 11.4459 152.844 11.4459C152.325 11.4459 151.896 11.6215 151.557 11.9701C151.216 12.3209 151.048 12.7546 151.048 13.2739V25.643C151.048 26.1619 151.216 26.5957 151.557 26.9442C151.896 27.2954 152.325 27.4684 152.844 27.4684C153.363 27.4684 153.792 27.2954 154.133 26.9442C154.472 26.5957 154.643 26.1619 154.643 25.643V18.5431C154.643 17.8268 154.736 17.2028 154.926 16.6714C155.116 16.1423 155.364 15.6988 155.674 15.3408C155.983 14.9798 156.325 14.7168 156.693 14.5461C157.063 14.3754 157.426 14.2925 157.787 14.2925C158.187 14.2925 158.54 14.3611 158.85 14.5024C159.159 14.641 159.503 14.7119 159.883 14.7119C160.283 14.7119 160.651 14.5657 160.992 14.2755C161.331 13.988 161.499 13.5128 161.499 12.8549C161.499 12.394 161.294 11.9968 160.887 11.6554Z" fill="white"/>
<path d="M171.772 24.0856C171.513 24.0856 171.282 24.1293 171.085 24.2194C170.885 24.3098 170.665 24.3535 170.424 24.3535C170.205 24.3535 170 24.3147 169.81 24.234C169.62 24.156 169.471 24.0245 169.361 23.844C169.252 23.6662 169.198 23.437 169.198 23.1567V15.0409H171.323C171.804 15.0409 172.201 14.8849 172.52 14.5755C172.839 14.2657 173 13.8832 173 13.4224C173 12.9449 172.839 12.5451 172.52 12.2259C172.201 11.9068 171.804 11.7458 171.323 11.7458H169.198V9.83003C169.198 9.31076 169.032 8.87702 168.703 8.52619C168.374 8.17762 167.948 8.00202 167.431 8.00202C166.91 8.00202 166.476 8.17762 166.127 8.52619C165.779 8.87702 165.603 9.31076 165.603 9.83003V11.7458H164.226C163.746 11.7458 163.346 11.9019 163.027 12.2112C162.708 12.5206 162.549 12.9035 162.549 13.364C162.549 13.8418 162.708 14.2416 163.027 14.5608C163.346 14.88 163.746 15.0409 164.226 15.0409H165.603V23.3055C165.603 24.2853 165.752 25.0529 166.052 25.611C166.352 26.1717 166.727 26.5862 167.175 26.8542C167.624 27.1247 168.104 27.2954 168.613 27.3636C169.122 27.4341 169.586 27.4684 170.005 27.4684C170.704 27.4684 171.357 27.2905 171.967 26.9295C172.576 26.5715 172.881 26.1107 172.881 25.5526C172.881 25.0921 172.766 24.7337 172.537 24.473C172.305 24.2145 172.052 24.0856 171.772 24.0856Z" fill="white"/>
<path d="M8.71651 0.0572701H2.31261C1.03516 0.0572701 0 1.09243 0 2.36951C0 3.6466 1.03516 4.68176 2.31261 4.68176H4.11012H5.96112H8.71651H14.1975V0.0572701H8.71651ZM14.1975 6.81387H4.79363C3.51617 6.81387 2.48101 7.84903 2.48101 9.12611C2.48101 10.4032 3.51617 11.4383 4.79363 11.4383H9.59114H11.4421H14.1975V6.81387ZM35.0427 4.50239C34.2834 3.12243 33.2901 2.0266 32.062 1.21453C30.8309 0.405846 29.5105 0 28.1075 0H22.8454H18.8586C18.1554 0 17.5679 0.234383 17.0923 0.709568C16.6206 1.18174 16.3828 1.76922 16.3828 2.47239V4.66404H16.385V11.441H20.9447V4.66404H21.0468H21.4138H22.8454H26.2806H28.1075C28.6192 4.66404 29.1208 4.87206 29.6062 5.29109C30.0945 5.71051 30.5008 6.25842 30.8241 6.93521C31.1474 7.61162 31.3094 8.34117 31.3094 9.12347C31.3094 9.88279 31.1474 10.6056 30.8241 11.2955C30.5008 11.9855 30.0945 12.5466 29.6062 12.9788C29.1208 13.4114 28.6192 13.6259 28.1075 13.6259H26.2806H22.8454H21.0468H18.2338H16.3828H8.58488C7.3078 13.6259 6.27265 14.661 6.27265 15.9381C6.27265 17.2152 7.3078 18.2503 8.58488 18.2503H16.3828H18.2338H21.0468H25.8356H26.2806H28.1075C29.5105 18.2503 30.8309 17.8377 32.062 17.0128C33.2901 16.1906 34.2834 15.0883 35.0427 13.7084C35.7986 12.3288 36.1781 10.8004 36.1781 9.12347C36.1781 7.42019 35.7986 5.87895 35.0427 4.50239ZM21.0491 20.4258V25.9185C21.0491 26.6213 20.8347 27.2091 20.4021 27.6809C19.9698 28.1565 19.4019 28.3909 18.6988 28.3909C18.0224 28.3909 17.4677 28.1565 17.0354 27.6809C16.6028 27.2091 16.385 26.6213 16.385 25.9185V20.4258H21.0491Z" fill="url(#paint0_linear_377_207)"/>
<defs>
<linearGradient id="paint0_linear_377_207" x1="-7" y1="14.1953" x2="36.1781" y2="14.1953" gradientUnits="userSpaceOnUse">
<stop stop-color="#60A5FA"/>
<stop offset="0.705" stop-color="#FFC531"/>
</linearGradient>
</defs>
</svg>
